<?xml version="1.0" encoding="UTF-8"?>
<!DOCTYPE svg PUBLIC "-//W3C//DTD SVG 1.1//EN" "http://www.w3.org/Graphics/SVG/1.1/DTD/svg11.dtd">
<!-- Creator: CorelDRAW -->
<svg xmlns="http://www.w3.org/2000/svg" xml:space="preserve" version="1.1" style="shape-rendering:geometricPrecision; text-rendering:geometricPrecision; image-rendering:optimizeQuality; fill-rule:evenodd; clip-rule:evenodd"
viewBox="0 0 913.8 605.89"
 xmlns:xlink="http://www.w3.org/1999/xlink"
 xmlns:xodm="http://www.corel.com/coreldraw/odm/2003">
 <defs>
  <style type="text/css">
   <![CDATA[
    .fil0 {fill:#fff}
   ]]>
  </style>
 </defs>
 <g id="Слой_x0020_1">
  <metadata id="CorelCorpID_0Corel-Layer"/>
  <g id="_2327969176128">
   <path class="fil0" d="M94.72 4.15c-49.5,8.35 -87.33,46.19 -92.68,95.43 -3.74,34.48 -1.26,317.31 -0.91,374.84 0.39,63.4 21.97,101.96 69.54,121.13 42.03,16.94 303.13,7.87 370.33,8.32 55.93,0.38 347.41,3.31 378.51,-1.46 45.24,-6.94 85.67,-46.06 91.83,-94.57 4.33,-34.08 1.67,-317.19 1.37,-374.79 -0.34,-64.69 -19.52,-100.11 -69.18,-122.34 -36.4,-16.3 -462.61,-9.24 -559.78,-8.9 -51.16,0.18 -144.32,-5.21 -189.04,2.34zm1 35.84c-52.8,12.25 -58.37,51.5 -58.19,112.26 0.24,79.55 -3.64,277.52 0.44,341.6 4,62.78 52.3,72.52 100.03,72.59 83.01,0.14 652.85,5.27 683.59,-2.94 49.55,-13.22 55.38,-55.99 55.26,-112.11 -0.15,-70.98 3.55,-288.52 -0.33,-341.01 -4.03,-54.55 -39.72,-72.86 -98,-73 -44.71,-0.11 -654.89,-3.87 -682.81,2.6z"/>
   <path class="fil0" d="M200.59 282.64c-21.79,22.4 -77.75,55.74 -74.06,134.09 4.55,96.9 264.53,98.93 272.26,3.94 6.11,-75.15 -45.69,-110.8 -73.95,-138.03 15,-27.88 41.96,-52.38 21.69,-101.38 -42.9,-103.69 -197.98,-52.35 -170.92,56.39 5.68,22.84 15.6,28.39 24.99,44.99zm-36.22 143.32c41.52,28.52 88.74,33.03 140.73,23.79 67.84,-12.05 72.07,-46.96 37.84,-99.53 -56.94,-87.46 -188.13,-40 -178.57,75.73zm78.73 -260.83c-62.71,23.63 -30.23,122.87 38.18,99.95 63.16,-21.17 33.11,-126.81 -38.18,-99.95z"/>
   <path class="fil0" d="M494.08 456.41c25.07,11.26 183.24,5.19 234.58,5.54 30,0.21 56.14,8.55 49.02,-29.67 -23.39,-13.1 -185.43,-6.6 -236.98,-6.66 -31.73,-0.04 -55.98,-5.79 -46.62,30.79z"/>
   <path class="fil0" d="M602.09 320.34l130.4 0.11c18.66,0 46.92,5.62 46.99,-18.65 0.07,-26.11 -47.66,-18.27 -85.34,-18.19l-183.85 0.09c-16.75,2.14 -26.97,17.99 -13.63,31.08 11.86,11.63 84.17,5.56 105.44,5.56z"/>
   <path class="fil0" d="M563.74 179.11l168.81 0c22.9,0 29.95,1.91 45.49,-7.27 5.81,-38.78 -22.9,-28.75 -83.9,-28.86l-168.75 0.01c-22.57,0 -49.04,10.15 -29.18,30.31 9.86,10.01 50.82,5.81 67.53,5.81z"/>
  </g>
 </g>
</svg>
