<?xml version="1.0" encoding="UTF-8"?>
<!DOCTYPE svg PUBLIC "-//W3C//DTD SVG 1.1//EN" "http://www.w3.org/Graphics/SVG/1.1/DTD/svg11.dtd">
<!-- Creator: CorelDRAW -->
<svg xmlns="http://www.w3.org/2000/svg" xml:space="preserve" version="1.1" style="shape-rendering:geometricPrecision; text-rendering:geometricPrecision; image-rendering:optimizeQuality; fill-rule:evenodd; clip-rule:evenodd"
viewBox="0 0 721.34 596.29"
 xmlns:xlink="http://www.w3.org/1999/xlink"
 xmlns:xodm="http://www.corel.com/coreldraw/odm/2003">
 <defs>
  <style type="text/css">
   <![CDATA[
    .fil0 {fill:white}
   ]]>
  </style>
 </defs>
 <g id="Слой_x0020_1">
  <metadata id="CorelCorpID_0Corel-Layer"/>
  <g>
   <path class="fil0" d="M504.5 257.37l-0.82 0c2.84,1.82 5.59,3.81 8.24,6 16.02,13.03 23.97,28.67 23.97,46.73 0,15.82 -4.68,32.26 -14.06,49.34 -9.37,17.17 -27.46,39.54 -54.26,67.31 -34.87,36.31 -60.37,66.15 -76.27,89.51 -12.53,18.42 -22.12,37.75 -28.77,57.88 -6.54,-20.67 -16.02,-40.17 -28.22,-58.33 -12.2,-18.15 -35.96,-46.37 -71.04,-84.66 -25.72,-28.04 -41.62,-45.84 -47.51,-53.38 -9.81,-12.31 -16.89,-23.55 -21.25,-33.88 -4.36,-10.24 -6.54,-20.67 -6.54,-31.19 0,-19.5 7.85,-35.77 23.54,-48.98 2.82,-2.34 5.76,-4.48 8.82,-6.41l-3.49 -0c-70.67,-16.42 -140.08,19.97 -168.78,55.18 -59.62,73.15 -46.89,128.24 -46.97,239.8 -0.01,18.58 -4.99,39.86 15.37,41.82 25.21,2.42 304.63,0.07 344.17,0.01 76.46,-0.11 152.92,0.26 229.38,0.01 152.56,-0.51 130.16,26.73 130.16,-99.19 0,-93.11 1.63,-123.25 -46.86,-182.57 -28.19,-34.48 -98.49,-71.91 -168.82,-55.02zm-140.16 284.48c-5.61,-17.72 -13.73,-34.45 -24.2,-50.01 -10.46,-15.57 -30.83,-39.76 -60.91,-72.59 -22.05,-24.04 -35.69,-39.3 -40.73,-45.77 -8.41,-10.56 -14.48,-20.19 -18.22,-29.05 -3.74,-8.78 -5.61,-17.72 -5.61,-26.74 0,-16.72 6.73,-30.67 20.18,-42 13.55,-11.25 30.27,-16.95 50.17,-16.95 19.99,0 37.46,5.93 52.23,17.65 11.12,8.71 20.18,21.73 27.09,39.07 6.07,-17.03 14.48,-29.98 25.51,-38.84 15.14,-12.02 32.61,-18.03 52.51,-18.03 19.71,0 36.44,5.55 50.08,16.8 13.73,11.17 20.55,24.58 20.55,40.07 0,13.56 -4.02,27.66 -12.05,42.31 -8.03,14.72 -23.54,33.91 -46.53,57.72 -29.9,31.13 -51.76,56.72 -65.4,76.75 -10.74,15.8 -18.97,32.37 -24.66,49.63zm-3.7 -236.91c0,0 0,0 0,0l0 0zm160.6 -303c-57.69,8.21 -110.14,64.6 -98.62,133.42 9.77,58.36 65.68,106.25 137.18,96.09 57.45,-8.16 110.75,-64.71 98.58,-133.48 -10.33,-58.33 -65.68,-106.19 -137.14,-96.03zm-362.59 0.71c-159.25,34.31 -106.54,255.53 45.54,228.11 56.43,-10.18 108.09,-66.22 93.97,-136.54 -10.89,-54.21 -69.04,-106.76 -139.51,-91.57z"/>
  </g>
 </g>
</svg>
