<?xml version="1.0" encoding="UTF-8"?>
<!DOCTYPE svg PUBLIC "-//W3C//DTD SVG 1.1//EN" "http://www.w3.org/Graphics/SVG/1.1/DTD/svg11.dtd">
<!-- Creator: CorelDRAW -->
<svg xmlns="http://www.w3.org/2000/svg" xml:space="preserve" version="1.1" style="shape-rendering:geometricPrecision; text-rendering:geometricPrecision; image-rendering:optimizeQuality; fill-rule:evenodd; clip-rule:evenodd"
viewBox="0 0 680.66 609.17"
 xmlns:xlink="http://www.w3.org/1999/xlink"
 xmlns:xodm="http://www.corel.com/coreldraw/odm/2003">
 <defs>
  <style type="text/css">
   <![CDATA[
    .str0 {stroke:white;}
    .fil0 {fill:white}
    .fil1 {fill:white}
    .fil2 {fill:white;fill-rule:nonzero}
   ]]>
  </style>
 </defs>
 <g id="Слой_x0020_1">
  <metadata id="CorelCorpID_0Corel-Layer"/>
  <path class="fil0 str0" d="M152.25 233.39l39.73 0c-6.92,5.75 -11.38,11.99 -12.91,18.55l-24.36 0c-75.21,0 -136.75,61.54 -136.75,136.75l0 178.65c0,12.54 10.26,22.79 22.79,22.79l599.16 0c12.54,0 22.79,-10.26 22.79,-22.79l0 -178.65c0,-75.21 -61.54,-136.75 -136.75,-136.75l-36.08 0c-1.54,-6.55 -6,-12.8 -12.91,-18.55l51.45 0c83.46,0 151.75,68.29 151.75,151.75l0 198.24c0,13.91 -11.38,25.29 -25.29,25.29l-629.07 0c-13.91,0 -25.29,-11.38 -25.29,-25.29l0 -198.24c0,-83.46 68.29,-151.75 151.75,-151.75z"/>
  <path class="fil1" d="M169.71 2.15c-128.84,27.76 -86.19,206.74 36.85,184.55 45.66,-8.23 87.45,-53.57 76.02,-110.46 -8.81,-43.86 -55.85,-86.37 -112.87,-74.09zm3.77 19.08c-102.17,22.01 -68.35,163.94 29.22,146.35 36.21,-6.53 69.35,-42.48 60.29,-87.6 -6.99,-34.78 -44.29,-68.49 -89.51,-58.75z"/>
  <path class="fil1" d="M463.73 16.19c-46.68,6.64 -89.11,52.26 -79.79,107.94 7.91,47.22 53.14,85.96 110.99,77.74 46.48,-6.6 89.6,-52.35 79.75,-107.99 -8.36,-47.19 -53.14,-85.91 -110.95,-77.69zm3.24 19.26c-36.99,5.26 -70.63,41.42 -63.24,85.55 6.27,37.42 42.12,68.13 87.97,61.61 36.84,-5.23 71.02,-41.49 63.21,-85.59 -6.62,-37.4 -42.12,-68.09 -87.94,-61.57z"/>
  <path class="fil2" d="M489.64 321.79c0,57.18 -51.76,140.4 -155.22,249.55 -102.17,-100.96 -153.26,-184.18 -153.26,-249.55 0,-23.55 7.65,-43.98 22.8,-61.3 15.63,-18.2 34.58,-27.34 56.91,-27.34 36.34,0 61.03,20.43 73.96,61.24 7.78,-20.57 16.04,-35.19 24.76,-43.78 11.64,-11.64 27.95,-17.46 48.99,-17.46 24.56,0 44.39,8.73 59.48,26.19 14.41,16.37 21.59,37.22 21.59,62.45z"/>
 </g>
</svg>
