<?xml version="1.0" encoding="UTF-8"?>
<!DOCTYPE svg PUBLIC "-//W3C//DTD SVG 1.1//EN" "http://www.w3.org/Graphics/SVG/1.1/DTD/svg11.dtd">
<!-- Creator: CorelDRAW -->
<svg xmlns="http://www.w3.org/2000/svg" xml:space="preserve" version="1.1" style="shape-rendering:geometricPrecision; text-rendering:geometricPrecision; image-rendering:optimizeQuality; fill-rule:evenodd; clip-rule:evenodd"
viewBox="0 0 570.67 471.75"
 xmlns:xlink="http://www.w3.org/1999/xlink"
 xmlns:xodm="http://www.corel.com/coreldraw/odm/2003">
 <defs>
  <style type="text/css">
   <![CDATA[
    .fil1 {fill:none}
    .fil0 {fill:white}
   ]]>
  </style>
 </defs>
 <g id="Слой_x0020_1">
  <metadata id="CorelCorpID_0Corel-Layer"/>
  <g id="_2857049646096">
   <path class="fil0" d="M125.51 2.1c-125.99,27.14 -84.29,202.16 36.03,180.47 44.65,-8.05 85.51,-52.39 74.34,-108.02 -8.62,-42.89 -54.62,-84.46 -110.37,-72.45zm3.69 18.65c-99.91,21.52 -66.84,160.31 28.57,143.11 35.41,-6.38 67.81,-41.54 58.95,-85.66 -6.83,-34.01 -43.31,-66.97 -87.52,-57.45z"/>
   <path class="fil0" d="M412.37 1.53c-45.64,6.49 -87.14,51.1 -78.02,105.55 7.73,46.17 51.96,84.06 108.53,76.02 45.45,-6.46 87.62,-51.19 77.99,-105.6 -8.17,-46.15 -51.96,-84.01 -108.5,-75.97zm3.17 18.83c-36.18,5.15 -69.06,40.5 -61.84,83.66 6.13,36.6 41.18,66.62 86.02,60.25 36.02,-5.12 69.44,-40.57 61.81,-83.69 -6.48,-36.58 -41.19,-66.59 -85.99,-60.21z"/>
   <path class="fil1" d="M285.31 241.25c0,0 0,0 0,0"/>
   <path class="fil0" d="M288.24 428.68c-4.43,-14.02 -10.87,-27.25 -19.14,-39.57 -8.28,-12.31 -24.39,-31.46 -48.19,-57.43 -17.44,-19.02 -28.23,-31.09 -32.23,-36.21 -6.65,-8.35 -11.46,-15.97 -14.41,-22.98 -2.96,-6.95 -4.43,-14.02 -4.43,-21.15 0,-13.23 5.32,-24.26 15.97,-33.23 10.72,-8.9 23.95,-13.41 39.69,-13.41 15.82,0 29.64,4.69 41.32,13.96 8.8,6.89 15.97,17.19 21.43,30.91 4.8,-13.47 11.46,-23.72 20.18,-30.73 11.97,-9.51 25.8,-14.27 41.54,-14.27 15.6,0 28.83,4.39 39.62,13.29 10.87,8.84 16.26,19.45 16.26,31.7 0,10.73 -3.18,21.89 -9.53,33.47 -6.36,11.64 -18.63,26.82 -36.81,45.66 -23.65,24.63 -40.95,44.87 -51.74,60.72 -8.5,12.5 -15,25.61 -19.51,39.26zm-0.08 -23.2c-3.52,-11.12 -8.62,-21.61 -15.18,-31.38 -6.56,-9.77 -19.34,-24.95 -38.22,-45.54 -13.83,-15.08 -22.39,-24.66 -25.56,-28.72 -5.28,-6.62 -9.09,-12.67 -11.43,-18.23 -2.35,-5.51 -3.52,-11.12 -3.52,-16.78 0,-10.49 4.22,-19.24 12.66,-26.35 8.5,-7.06 18.99,-10.64 31.48,-10.64 12.54,0 23.5,3.72 32.76,11.07 6.98,5.46 12.66,13.63 17,24.51 3.81,-10.68 9.09,-18.81 16,-24.37 9.5,-7.54 20.46,-11.31 32.94,-11.31 12.37,0 22.86,3.48 31.42,10.54 8.62,7.01 12.89,15.42 12.89,25.14 0,8.51 -2.52,17.36 -7.56,26.54 -5.04,9.23 -14.77,21.27 -29.19,36.21 -18.76,19.53 -32.47,35.58 -41.03,48.15 -6.74,9.91 -11.9,20.31 -15.47,31.13z"/>
   <path class="fil0" d="M399.13 203.61l-0.65 0c2.25,1.44 4.42,3.02 6.52,4.74 8.25,6.71 13.8,14.3 16.66,22.72 26.18,5.89 48.46,20.56 59.83,34.46 30.42,37.21 29.4,56.12 29.4,114.54 0,79 14.05,61.91 -81.66,62.23 -46,0.15 -91.99,-0.06 -137.99,-0.01 -1.62,3.94 -3.1,7.92 -4.43,11.94 -1.27,-4.03 -2.69,-8 -4.25,-11.92 -32.84,0.12 -197.85,1.46 -213.17,-0.02 -12.78,-1.23 -9.65,-14.58 -9.65,-26.24 0.05,-69.99 -7.94,-104.55 29.47,-150.44 11.94,-14.65 35.12,-29.63 62.31,-35.05 2.95,-8.23 8.22,-15.53 15.81,-21.92 2.23,-1.85 4.56,-3.54 6.98,-5.07l-2.76 -0c-55.91,-12.99 -110.82,15.8 -133.52,43.66 -47.17,57.87 -37.09,101.46 -37.16,189.71 -0.01,14.7 -3.95,31.54 12.16,33.09 19.94,1.92 241,0.06 272.29,0.01 60.49,-0.09 120.98,0.21 181.47,0 120.7,-0.4 102.97,21.15 102.97,-78.47 0,-73.66 1.29,-97.51 -37.08,-144.43 -22.3,-27.28 -77.92,-56.89 -133.56,-43.53z"/>
  </g>
 </g>
</svg>
